<?xml version="1.0" encoding="utf-8"?>
<!-- Generator: Adobe Illustrator 22.0.0, SVG Export Plug-In . SVG Version: 6.00 Build 0)  -->
<svg version="1.1" id="Layer_1" xmlns="http://www.w3.org/2000/svg" xmlns:xlink="http://www.w3.org/1999/xlink" x="0px" y="0px"
	 viewBox="0 0 1920 1080" style="enable-background:new 0 0 1920 1080;" xml:space="preserve">
<style type="text/css">
	.st0{fill:url(#SVGID_1_);}
	.st1{fill:#FFFFFF;}
	.st2{fill:url(#SVGID_2_);}
</style>
<linearGradient id="SVGID_1_" gradientUnits="userSpaceOnUse" x1="-453" y1="87" x2="-453" y2="87">
	<stop  offset="0" style="stop-color:#00D8FF"/>
	<stop  offset="9.360408e-02" style="stop-color:#05CFF9"/>
	<stop  offset="0.2487" style="stop-color:#11B5E8"/>
	<stop  offset="0.3743" style="stop-color:#1E9CD7"/>
	<stop  offset="0.781" style="stop-color:#0075BE"/>
	<stop  offset="0.9944" style="stop-color:#005B97"/>
</linearGradient>
<path class="st0" d="M-453,87"/>
<path class="st1" d="M525,787"/>
<linearGradient id="SVGID_2_" gradientUnits="userSpaceOnUse" x1="17.0261" y1="598.968" x2="1939.926" y2="598.968">
	<stop  offset="0" style="stop-color:#00D8FF"/>
	<stop  offset="0.1047" style="stop-color:#05CFF9"/>
	<stop  offset="0.2783" style="stop-color:#11B5E8"/>
	<stop  offset="0.4189" style="stop-color:#1E9CD7"/>
	<stop  offset="0.7167" style="stop-color:#0075BE"/>
	<stop  offset="0.9944" style="stop-color:#005B97"/>
</linearGradient>
<path class="st2" d="M25,1031C0.2,963.4,36.1,862.1,93,833c58.2-29.8,123,24,198,54c333,133.2,664.7-284,943-136
	c62.4,33.2,106.5,86.4,175,74c85.5-15.5,157.3-124,134-172c-18.6-38.3-96.3-21.9-101-44c-9-42.1,273.1-82.5,305-216
	c22.8-95.3-101-158-70-248c26.4-76.6,149.3-126.7,208-92c36.7,21.7,38.9,116.5,44,306c3.4,127.1,0,236,0,236
	c-0.8,25.7-1.8,56.5-2,100c-0.2,53.2,1,94.7,2,124c6.5,190.1,17.2,229.3,6.2,251.8c-1.3,2.7-3.4,5.5-6.2,9.2
	c-63.5,83.5-245.5,41.5-288,33C1231.6,1030.7,125.7,1305.4,25,1031z"/>
</svg>
