<?xml version="1.0" encoding="utf-8"?>
<!-- Generator: Adobe Illustrator 22.0.0, SVG Export Plug-In . SVG Version: 6.00 Build 0)  -->
<svg version="1.1" id="Layer_1" xmlns="http://www.w3.org/2000/svg" xmlns:xlink="http://www.w3.org/1999/xlink" x="0px" y="0px"
	 viewBox="0 0 1920 1694" style="enable-background:new 0 0 1920 1694;" xml:space="preserve">
<style type="text/css">
	.st0{fill:url(#SVGID_1_);}
	.st1{fill:url(#SVGID_2_);}
</style>
<linearGradient id="SVGID_1_" gradientUnits="userSpaceOnUse" x1="1566.2758" y1="776.8039" x2="3113.0332" y2="776.8039" gradientTransform="matrix(-0.4695 -0.8829 -0.8829 0.4695 2536.5715 2167.4063)">
	<stop  offset="0" style="stop-color:#00D8FF"/>
	<stop  offset="9.360408e-02" style="stop-color:#05CFF9"/>
	<stop  offset="0.2487" style="stop-color:#11B5E8"/>
	<stop  offset="0.3743" style="stop-color:#1E9CD7"/>
	<stop  offset="0.781" style="stop-color:#0075BE"/>
	<stop  offset="0.9944" style="stop-color:#005B97"/>
</linearGradient>
<path class="st0" d="M604,1288c14.6-190.2-283.9-340.6-314.9-654.5c-2.4-24.6,1.6-128-14.1-256.5c-9.5-77.5-23.5-140.7,0-224
	c0,0,4.8-16.3,15.2-39.7c0,0,19.4-43.7,48.7-82.3C434.8-95.3,772-44,772-44c640.7,97.4,1115.5-71.5,1146.6,51
	c40.3,158.9-743.1,583-930.1,385C891.6,289.5,965.2,89.6,823.2,0c-56-35.4-94.1-18.5-255.2-14C199-3.8,63.3-83,0,0
	c-17.4,22.8-3.6,24.8,0,246c1.9,120,0,240,0,360c0,55.5,0,78.7,0,116c0,127.7-1.3,395.1-6,974C480.8,1544.7,595.6,1397.9,604,1288z"
	/>
<linearGradient id="SVGID_2_" gradientUnits="userSpaceOnUse" x1="-453" y1="993" x2="-453" y2="993" gradientTransform="matrix(1 0 0 -1 0 1080)">
	<stop  offset="0" style="stop-color:#00D8FF"/>
	<stop  offset="9.360408e-02" style="stop-color:#05CFF9"/>
	<stop  offset="0.2487" style="stop-color:#11B5E8"/>
	<stop  offset="0.3743" style="stop-color:#1E9CD7"/>
	<stop  offset="0.781" style="stop-color:#0075BE"/>
	<stop  offset="0.9944" style="stop-color:#005B97"/>
</linearGradient>
<path class="st1" d="M-453,87"/>
</svg>
